<?xml version="1.0" encoding="iso-8859-1"?>
<!-- Generator: Adobe Illustrator 19.0.0, SVG Export Plug-In . SVG Version: 6.00 Build 0)  -->
<svg version="1.1" id="Layer_1" xmlns="http://www.w3.org/2000/svg" xmlns:xlink="http://www.w3.org/1999/xlink" x="0px" y="0px"
	 viewBox="0 0 512 512" style="enable-background:new 0 0 512 512;" xml:space="preserve">
<path style="fill:#6B6B6B;" d="M0,376V52c0.104-5.704,4.696-10.296,10.4-10.4h491.2c5.704,0.104,10.296,4.696,10.4,10.4v324H0z"/>
<path d="M512,376v41.6c-0.104,5.704-4.696,10.296-10.4,10.4H10.4c-5.704-0.104-10.296-4.696-10.4-10.4V376H512z"/>
<rect x="146.4" y="501.6" style="fill:#333333;" width="219.2" height="10.4"/>
<polygon style="fill:#6B6B6B;" points="328.8,501.6 183.2,501.6 193.6,428 318.4,428 "/>
<rect x="20.8" y="62.4" width="470.4" height="292.8"/>
<g>
	<polygon style="fill:#333333;" points="318.4,428 193.6,428 187.792,469.08 320.272,441.224 	"/>
	<path style="fill:#333333;" d="M328.928,314.664H155.056c-9.824-0.024-17.784-7.984-17.808-17.808V17.808
		C137.272,7.984,145.232,0.024,155.056,0h201.888c9.824,0.024,17.784,7.984,17.808,17.808v251.2"/>
</g>
<path style="fill:#E21B1B;" d="M328.928,278.12v36.552l45.824-45.688h-36.688C333.024,269,328.944,273.08,328.928,278.12z"/>
<rect x="255.992" y="143.08" style="fill:#FFFFFF;" width="31.872" height="8"/>
<rect x="181.624" y="143.08" style="fill:#E21B1B;" width="42.496" height="8"/>
<rect x="181.624" y="100.584" style="fill:#C1C1C1;" width="42.496" height="8"/>
<rect x="245.376" y="100.584" style="fill:#E21B1B;" width="42.504" height="8"/>
<g>
	<rect x="298.48" y="100.584" style="fill:#C1C1C1;" width="42.496" height="8"/>
	<rect x="330.4" y="121.832" style="fill:#C1C1C1;" width="21.248" height="8"/>
	<rect x="277.248" y="121.832" style="fill:#C1C1C1;" width="21.248" height="8"/>
</g>
<rect x="193.68" y="121.832" style="fill:#FFFFFF;" width="39.952" height="8"/>
<rect x="330.4" y="79.336" style="fill:#E21B1B;" width="21.248" height="8"/>
<rect x="277.248" y="79.336" style="fill:#C1C1C1;" width="21.248" height="8"/>
<rect x="181.624" y="79.336" style="fill:#FFFFFF;" width="63.744" height="8"/>
<rect x="298.48" y="36.84" style="fill:#E21B1B;" width="53.12" height="8"/>
<rect x="255.992" y="36.84" style="fill:#FFFFFF;" width="21.256" height="8"/>
<g>
	<rect x="171" y="36.84" style="fill:#C1C1C1;" width="63.744" height="8"/>
	<rect x="309.12" y="58.088" style="fill:#C1C1C1;" width="42.504" height="8"/>
	<rect x="266.64" y="58.088" style="fill:#C1C1C1;" width="21.248" height="8"/>
</g>
<rect x="160.4" y="58.088" style="fill:#E21B1B;" width="63.736" height="8"/>
<g>
	<path style="fill:#FFFFFF;" d="M190.856,241.688h-10.4l11.096-52.976h10.4l-4,18.864c1.984-1.624,4.184-2.952,6.536-3.96
		c2.072-0.816,4.28-1.224,6.504-1.208c2.72-0.152,5.376,0.816,7.368,2.672c1.84,1.856,2.824,4.4,2.712,7.008
		c-0.112,2.416-0.456,4.808-1.008,7.16l-4.696,22.4h-10.4l4.8-22.872c0.376-1.576,0.624-3.184,0.76-4.8
		c0.056-1.144-0.376-2.256-1.184-3.072c-0.888-0.8-2.056-1.224-3.248-1.16c-1.816,0.032-3.576,0.664-4.992,1.808
		c-2.032,1.536-3.656,3.544-4.736,5.848c-1.064,2.92-1.864,5.936-2.4,9L190.856,241.688z"/>
	<path style="fill:#FFFFFF;" d="M228.152,211.016l1.6-7.696h5.056l1.264-6.144l11.888-7.16l-2.784,13.296h6.32l-1.6,7.696h-6.36
		l-3.368,16.08c-0.384,1.648-0.68,3.312-0.896,4.984c-0.04,0.704,0.24,1.392,0.76,1.864c0.808,0.528,1.784,0.76,2.744,0.664
		c0.464,0,1.6-0.088,3.44-0.256l-1.6,7.696c-1.808,0.36-3.648,0.544-5.496,0.536c-2.832,0.248-5.656-0.504-8-2.112
		c-1.688-1.472-2.608-3.632-2.496-5.872c0.24-2.752,0.688-5.48,1.344-8.168l3.2-15.424L228.152,211.016z"/>
	<path style="fill:#FFFFFF;" d="M257.88,203.32h9.76l-0.976,4.68c3.088-3.4,7.408-5.416,12-5.6c2.368-0.152,4.712,0.48,6.68,1.808
		c1.584,1.232,2.656,3.008,3,4.984c1.48-2.04,3.448-3.688,5.712-4.8c2.376-1.272,5.04-1.944,7.736-1.952
		c2.616-0.16,5.192,0.728,7.16,2.456c1.736,1.712,2.664,4.072,2.56,6.504c-0.136,2.312-0.472,4.608-1.016,6.864l-4.896,23.424h-10.4
		l4.912-23.448c0.6-2.944,0.904-4.608,0.904-4.992c0.048-0.936-0.304-1.848-0.96-2.512c-0.8-0.672-1.832-1-2.872-0.92
		c-2.832,0.144-5.408,1.672-6.896,4.088c-1.944,3.176-3.216,6.712-3.76,10.4l-3.648,17.416h-10.4l4.8-23.2
		c0.4-1.712,0.664-3.448,0.8-5.2c0.032-0.944-0.344-1.848-1.032-2.496c-0.784-0.68-1.8-1.032-2.832-0.976
		c-1.232,0.032-2.44,0.376-3.504,1.008c-1.248,0.696-2.336,1.648-3.2,2.784c-1.008,1.384-1.792,2.92-2.328,4.552
		c-0.288,0.872-0.76,2.832-1.408,5.888l-3.688,17.6h-10.4L257.88,203.32z"/>
	<path style="fill:#FFFFFF;" d="M315.912,241.688l11.096-52.976h10.336l-11.064,52.976H315.912z"/>
</g>
<g>
</g>
<g>
</g>
<g>
</g>
<g>
</g>
<g>
</g>
<g>
</g>
<g>
</g>
<g>
</g>
<g>
</g>
<g>
</g>
<g>
</g>
<g>
</g>
<g>
</g>
<g>
</g>
<g>
</g>
</svg>
